# xmcd
#
# Track frame offsets:
#	150
#	17489
#	32583
#	49525
#	63154
#	80437
#	96309
#	109998
#	126140
#	145200
#	161585
#	174559
#	192811
#	207194
#
# Disc length: 3011 seconds
#
# Revision: 1
# Processed by: cddbd v1.5.2PL0 Copyright (c) Steve Scherf et al.
# Submitted via: audiograbber 1.83.01
#
DISCID=b50bc10e
DTITLE=Trisha Yearwood - Every Girl
DYEAR=2019
DGENRE=Country
TTITLE0=Workin' on Whiskey
TTITLE1=Find a Way
TTITLE2=Home
TTITLE3=Every Girl in This Town
TTITLE4=Tell Me Something I Don't Know (feat. Kelly Clarkson)
TTITLE5=What Gave Me Away (feat. Garth Brooks)
TTITLE6=Something Kinda Like It
TTITLE7=When Lonely Calls
TTITLE8=The Matador
TTITLE9=I'll Carry You Home
TTITLE10=Drink Up
TTITLE11=Bible and a .44 (feat. Patty Loveless)
TTITLE12=Can't Take Back Goodbye
TTITLE13=Love You Anyway (feat. Don Henley)
EXTD=
EXTT0=
EXTT1=
EXTT2=
EXTT3=
EXTT4=
EXTT5=
EXTT6=
EXTT7=
EXTT8=
EXTT9=
EXTT10=
EXTT11=
EXTT12=
EXTT13=
PLAYORDER=
